<?xml version="1.0" encoding="UTF-8" standalone="no"?>
<svg
   id="svg1"
   viewBox="6 -6 286 651"
   preserveAspectRatio="xMidYMid meet"
   version="1.1"
   sodipodi:docname="silhouette-front.svg"
   inkscape:version="1.4.2 (ebf0e940, 2025-05-08)"
   xmlns:inkscape="http://www.inkscape.org/namespaces/inkscape"
   xmlns:sodipodi="http://sodipodi.sourceforge.net/DTD/sodipodi-0.dtd"
   xmlns="http://www.w3.org/2000/svg"
   xmlns:svg="http://www.w3.org/2000/svg">
  <defs
     id="defs1" />
  <sodipodi:namedview
     id="namedview1"
     pagecolor="#ffffff"
     bordercolor="#000000"
     borderopacity="0.25"
     inkscape:showpageshadow="2"
     inkscape:pageopacity="0.0"
     inkscape:pagecheckerboard="0"
     inkscape:deskcolor="#d1d1d1"
     inkscape:zoom="0.91672794"
     inkscape:cx="-49.087628"
     inkscape:cy="377.97474"
     inkscape:window-width="1512"
     inkscape:window-height="916"
     inkscape:window-x="1"
     inkscape:window-y="38"
     inkscape:window-maximized="0"
     inkscape:current-layer="svg1" />
  <g
     id="g1"
     transform="translate(-104.42 -52.372)">
    <path
       id="right-leg-front"
       d="M236.148 336.073c9.405-.612 50.31-.05 53.27 3.219 2.896 3.2 3.311 31.926 1.168 60.417-.568 7.551-4.183 43.967-4.733 46.35-1.787 7.746-2.35 14.123-1.823 20.667.28 3.483.578 11.283.66 17.333s.474 12.65.87 14.667c2.054 10.469 1.433 36.376-1.23 51.333-.359 2.017-1.122 6.667-1.696 10.334s-1.78 10.566-2.681 15.333c-5.092 26.943-5.136 27.242-4.708 32 .231 2.567.635 8.117.898 12.334.4 6.409.724 8.012 1.978 9.77.825 1.156 1.5 2.29 1.5 2.519s1.125 1.854 2.5 3.61a417 417 0 0 1 4.167 5.416c.917 1.222 2.635 3.3 3.818 4.62 1.183 1.319 2.158 2.736 2.166 3.15.01.413.436 1.1.95 1.527 1.67 1.385 1.925 4.09.533 5.641-.698.777-1.437 1.894-1.643 2.482-.51 1.458-5.544 3.997-6.895 3.478-.665-.255-1.337.014-1.711.683-.838 1.497-3.341 1.39-5.4-.23-2.058-1.618-3.151-1.702-3.151-.24 0 2.763-4.335 3.714-7.667 1.682-4.147-2.53-8.333-12.22-8.333-19.286 0-1.467-.593-3-1.64-4.246-2.85-3.387-2.976-7.407-.676-21.577 2.389-14.717 1.595-32.168-2.366-52-.732-3.666-1.46-7.866-1.618-9.333s-.796-5.367-1.418-8.667c-.95-5.036-1.4-11.139-1.52-38-.153-34.206-.735-46.504-4.059-64-.348-1.833-2.219-10.115-3.338-18.732s-2.199-18.034-2.564-20.6c-1.114-7.83-2.38-30.331-2.38-36.21-.002-10.372-1.899-4.494-2.596-7.115-.357-1.343-.363-28.216 1.368-28.329"
       style="display:inline;fill:none;fill-opacity:.604603;stroke:none;stroke-opacity:1"
       inkscape:label="right-leg-front" />
    <path
       id="torso-front"
       d="M289.715 339.24c-1.919-15.156-5.19-29.313-5.937-32.781-3.188-14.822-3.974-39.342-2.44-49.678 1.454-9.796 2.386-14.985 3.053-17 .303-.916 1.198-5.416 1.987-10 .47-2.72 2.346-9.504 2.219-10.814-.545-5.62-1.954-17.345-1.057-33.4 1.38-24.696 3.498-27.84 3.71-28.435.412-1.149-12.53-5.233-13.263-4.949-6.845 2.657-36.735 6.752-41.455 6.632-12.064-.306-33.615-5.328-41.905-8.058-1.94-.639-13.445 4.904-16.474 5.764-.67.19 5.849 16.298 4.775 28.775-1.118 12.982-2.353 28.9-2.816 34.411-.14 1.663 2.455 10.008 3.366 14.408 2.198 10.615 3.41 17.73 3.92 23 .231 2.383.728 5.947 1.105 7.92.477 2.5.465 5.125-.041 8.666-.4 2.794-1.186 11.019-1.748 18.277-.929 11.99-2.003 19.18-3.716 24.87-1.08 3.588-3.093 12.743-4.162 22.1 0 0 48.748-2.271 56.6-2.475 8.977-.233 54.279 2.767 54.279 2.767"
       style="display:inline;fill:none;fill-opacity:.604603;stroke:none;stroke-opacity:.0564853" />
    <path
       id="head-front"
       d="M212.677 140.92c4.99-3.806 5.086-14.382.278-30.43-.419-1.398-1.3-2.712-1.96-2.921-4.196-1.332-7.764-14.98-4.264-16.312 1.638-.622 1.666-.759 1.666-7.95 0-18.691 8.796-29.66 24.51-30.567 17.107-.987 27.526 10.424 27.747 30.389.072 6.433.18 6.948 1.68 8.08 2.79 2.104.907 11.21-3.155 15.258-2.658 2.649-3.353 4.245-5.42 12.457-3.779 15.022-1.965 20.255 8.861 25.562 0 0 13.681 6.19 15.008 7.542 1.476 1.505-33.222 6.796-40.747 6.894-9.1.12-44.99-6.894-42.692-8.308s17.089-8.075 18.488-9.694"
       style="display:inline;fill:none;fill-opacity:1;stroke:none;stroke-opacity:1" />
    <path
       id="right-arm-front"
       d="M288.603 219.386c.475.65 1.945 3.392 2.187 4.908.243 1.516.648 3.085.9 3.486.254.402 1.136 3.88 1.961 7.73 4.1 19.121 5.6 27.742 6.21 35.667.787 10.246 2.123 16.237 5.35 24 .305.733.756 2.083 1.003 3 .596 2.213 7.61 18.815 8.31 19.668 1.145 1.397 7.323 17.92 7.329 19.601.002.586.504 1.964 1.114 3.064.852 1.536 1.059 3.315.89 7.667-.79 20.46.286 46.812 2.047 50.103 1.63 3.047 2.278.823 2.465-8.477.174-8.673.95-12.623 1.746-8.889.586 2.75 1.851 12.759 2.116 16.748.331 4.975 1.858 8.697 3.439 8.384 1.496-.297 1.606-8.546.23-17.282-.882-5.596-.651-9.254.583-9.254.806 0 1.243 1.56 1.68 6 .822 8.345 1.14 10.559 2.17 15.14 1.062 4.727 2.305 6.339 3.762 4.881.957-.957.864-4.1-.473-15.876-1.164-10.254-1.073-12.166.52-10.844.9.746 2.095 5.015 4.395 15.7 1.833 8.514 2.305 9.666 3.964 9.666 1.537 0 1.87-4.583.703-9.667-.542-2.36-2.688-21.057-2.688-23.42 0-1.357 1.968-1.105 2.521.323.977 2.524 5.22 7.361 7.479 8.526 1.283.662 2.494 1.29 2.69 1.395 2.505 1.346-6.181-16.814-11.594-24.241-3.177-4.36-7.927-9.545-9.078-9.91-1.755-.557-5.732-18.075-7.115-31.34-.153-1.466-.717-6.266-1.252-10.666-.536-4.4-1.288-11-1.671-14.667-1.167-11.177-1.258-11.877-2.038-15.666-1.046-5.08-3.774-12.946-6.041-17.416-1.526-3.008-1.901-4.627-1.901-8.193 0-6.596-1.16-16.124-3.368-27.673-1.726-9.031-1.966-11.755-1.966-22.378 0-6.652-.428-13.859-.709-16.051-1.307-10.212-3.75-11.556-3.872-12.062-.748-3.102-10.385-10.606-18.419-13.237 0 0-1.665-.598-2.324-.68-3.68-.454-4.242 29.674-4.617 33.924-.75 8.5 1.362 28.308 1.362 28.308"
       style="display:inline;fill:none;fill-opacity:1;stroke:none;stroke-opacity:1"
       inkscape:label="right-arm-front" />
    <path
       id="left-arm-front"
       d="M177.805 156.748c-7.236 2.42-10.877 3.85-11.644 5.05-.293.457-.97.832-1.503.832-7.069 0-12.178 14.466-12.952 36.667-.437 12.542-.895 17.804-1.975 22.667-1.655 7.451-3.338 21.177-3.357 27.372-.011 3.753-.389 5.121-2.67 9.667-1.46 2.912-2.661 5.809-2.666 6.438-.005.63-.444 2.13-.975 3.334-1.206 2.737-2.754 12.517-4.04 25.522-2.45 24.797-7.166 52.334-8.962 52.334-.519 0-4.47 3.774-6.61 6.315-3.129 3.713-8.05 11.452-10.4 16.351-1.32 2.75-2.691 5.45-3.049 6-5.82 8.947 1.554 6.664 8.074-2.5 3.882-5.456 4.003-3.634 1.221 18.436-1.336 10.597-1.233 12.953.55 12.602 1.739-.343 2.21-1.79 5.16-15.835 3.318-15.806 5.905-10.423 3.025 6.297-1.654 9.602-1.39 12.197 1.158 11.388 1.592-.506 4-10.63 4.637-19.503.437-6.086 1.006-7.68 2.284-6.402.629.63.61 2.523-.09 8.661-1.583 13.886-1.29 18.024 1.22 17.228 1.53-.486 1.693-1.218 3.13-14.038 1.714-15.288 3.185-16.676 2.863-2.701-.217 9.458.364 11.815 2.387 9.672 2.333-2.471 4.062-36.334 2.4-47.016-.968-6.22 1.944-17.461 7.845-30.289 1.265-2.75 3.208-6.95 4.318-9.333 6.055-13.01 10.882-28.866 11.782-38.709 1.237-13.516 3.155-24.55 6.776-38.958 1.106-4.4 2.344-9.35 2.751-11 0 0 .825-2.525 1.51-3.52.685-.994 2.688-31.416 3.122-33.152 1.433-5.732-4.156-30.224-5.32-29.877"
       style="display:inline;fill:none;fill-opacity:1;stroke:none;stroke-opacity:1" />
    <path
       id="left-leg-front"
       d="M195.432 663.912a149 149 0 0 0-1.314-2.076c-.091-.134-1.193.391-2.447 1.166-2.724 1.684-4.826 1.812-5.395.329-.304-.792-.932-.978-2.347-.695-1.271.254-2.207.054-2.738-.586-.443-.534-1.229-.971-1.745-.971-.517 0-1.125-.525-1.351-1.167-.227-.642-1.005-1.826-1.73-2.632-2.67-2.97-1.535-5.313 8.854-18.286 7.425-9.273 7.798-10.16 8.13-19.362.179-4.96.59-8.153 1.134-8.809 1.16-1.398.622-6.527-2.283-21.744-4.859-25.453-5.202-27.393-7.365-41.667-2.075-13.692-2.557-35.77-1.011-46.312.854-5.826 1.623-24.736 1.6-39.355-.01-6.112-.397-10.021-1.456-14.667-5.157-22.63-10.088-106.851-4.08-107.993 15.413-2.93 46.611-2.643 55.278-3.275 3.041-.222.008 15.89-.284 28.904-.027 1.235-3.087-3.343-3.052 11.789.016 6.797-.838 16.602-1.264 20.26l-1.008 8.649c-.129 1.1-.57 5.15-.98 9s-1.194 9.85-1.74 13.333c-3.703 23.62-6.096 42.348-6.603 51.667-.753 13.851-.88 38.005-.231 44 .809 7.475-.952 25.139-4.077 40.904-4.837 24.4-5.563 42.395-2.381 58.988 1.523 7.939 1.334 13.418-.576 16.716-.868 1.499-2.214 5.842-2.991 9.652-2.536 12.432-10.687 20.41-14.547 14.24"
       style="display:inline;fill:none;fill-opacity:.604603;stroke:none;stroke-opacity:1"
       inkscape:label="left-leg-front" />
    <path
       id="full-front"
       style="fill:none;fill-opacity:0.604603;stroke:#000000;stroke-opacity:1"
       d="m 113.27252,31.343383 c -0.12653,-1.853411 8.49606,-3.032117 9.39054,-0.584599 1.11482,3.050421 -8.57045,2.599711 -9.39054,0.584599 z m 32.881,-0.138669 c 0.12653,1.85342 -8.49606,3.03212 -9.39054,0.5846 -1.11482,-3.05042 8.57045,-2.59971 9.39054,-0.5846 z M 90.854,611.243 a 149,149 0 0 0 -1.313,-2.076 c -0.092,-0.134 -1.193,0.391 -2.447,1.166 -2.724,1.684 -4.827,1.811 -5.396,0.328 -0.303,-0.791 -0.932,-0.978 -2.346,-0.695 -1.272,0.255 -2.207,0.055 -2.738,-0.585 -0.444,-0.534 -1.23,-0.972 -1.746,-0.972 -0.517,0 -1.125,-0.525 -1.351,-1.166 -0.226,-0.642 -1.005,-1.826 -1.73,-2.632 -2.67,-2.97 -1.535,-5.313 8.854,-18.286 7.426,-9.273 7.798,-10.16 8.13,-19.362 0.18,-4.96 0.59,-8.153 1.135,-8.809 1.16,-1.398 0.622,-6.527 -2.283,-21.745 -4.86,-25.452 -5.202,-27.392 -7.365,-41.666 -2.075,-13.693 -2.557,-35.77 -1.012,-46.312 0.854,-5.826 1.624,-24.736 1.6,-39.355 -0.01,-6.112 -0.397,-10.022 -1.455,-14.667 -5.157,-22.63 -8.285,-76.906 -5.725,-99.333 1.069,-9.357 3.833,-26.012 4.912,-29.6 1.713,-5.69 2.787,-12.88 3.716,-24.87 0.562,-7.258 1.349,-15.483 1.748,-18.277 0.506,-3.541 0.518,-6.166 0.04,-8.666 -0.376,-1.973 -0.873,-5.537 -1.103,-7.92 -0.51,-5.27 -1.723,-12.385 -3.92,-23 -0.912,-4.4 -1.863,-9.35 -2.114,-11 -0.859,-5.631 -1.576,-5.8 -2.843,-0.667 -0.407,1.65 -1.645,6.6 -2.75,11 -3.621,14.409 -5.54,25.441 -6.776,38.958 -0.9,9.842 -5.727,25.7 -11.783,38.709 -1.11,2.383 -3.052,6.583 -4.317,9.333 -5.901,12.827 -8.813,24.069 -7.846,30.289 1.662,10.682 -0.066,44.544 -2.4,47.016 -2.022,2.142 -2.604,-0.214 -2.386,-9.673 0.321,-13.974 -1.15,-12.587 -2.863,2.701 -1.438,12.821 -1.6,13.553 -3.13,14.038 -2.51,0.797 -2.803,-3.341 -1.22,-17.227 0.699,-6.138 0.718,-8.032 0.09,-8.661 -1.279,-1.278 -1.847,0.315 -2.284,6.402 -0.638,8.873 -3.045,18.997 -4.638,19.503 -2.547,0.808 -2.811,-1.786 -1.157,-11.388 2.879,-16.72 0.292,-22.104 -3.026,-6.297 -2.949,14.044 -3.42,15.492 -5.16,15.835 -1.782,0.351 -1.885,-2.005 -0.55,-12.603 2.783,-22.07 2.662,-23.892 -1.22,-18.435 -6.521,9.164 -13.894,11.447 -8.075,2.5 0.358,-0.55 1.73,-3.25 3.049,-6 2.35,-4.9 7.272,-12.638 10.4,-16.351 2.141,-2.541 6.092,-6.316 6.61,-6.316 1.796,0 6.512,-27.536 8.963,-52.333 1.285,-13.006 2.833,-22.786 4.04,-25.523 0.53,-1.204 0.969,-2.704 0.974,-3.333 0.005,-0.63 1.206,-3.527 2.667,-6.439 2.28,-4.545 2.658,-5.913 2.67,-9.666 0.018,-6.195 1.701,-19.921 3.356,-27.372 1.08,-4.864 1.539,-10.125 1.976,-22.667 0.774,-22.202 5.883,-36.667 12.951,-36.667 0.534,0 1.21,-0.375 1.504,-0.833 0.767,-1.199 4.297,-2.795 11.533,-5.215 14.097,-4.714 29.916,-11.786 34.946,-15.623 4.99,-3.806 5.087,-14.381 0.278,-30.43 -0.418,-1.397 -1.3,-2.711 -1.96,-2.92 -4.196,-1.332 -7.764,-14.981 -4.264,-16.312 1.638,-0.623 1.667,-0.76 1.667,-7.951 0,-18.69 8.795,-29.66 24.509,-30.566 17.107,-0.987 27.526,10.423 27.748,30.388 0.071,6.433 0.178,6.949 1.679,8.08 2.79,2.105 0.907,11.21 -3.155,15.258 -2.658,2.65 -3.353,4.246 -5.419,12.458 -3.78,15.021 -1.966,20.254 8.86,25.562 14.532,7.123 19.395,9.148 31.444,13.095 8.034,2.63 17.67,10.135 18.42,13.236 0.121,0.507 2.564,1.85 3.871,12.062 0.281,2.193 0.71,9.4 0.71,16.052 0,10.623 0.239,13.346 1.965,22.377 2.208,11.55 3.368,21.078 3.368,27.674 0,3.565 0.375,5.184 1.9,8.192 2.268,4.47 4.996,12.337 6.042,17.416 0.78,3.79 0.87,4.49 2.038,15.667 0.383,3.667 1.135,10.267 1.67,14.667 0.536,4.4 1.1,9.2 1.253,10.666 1.383,13.264 5.36,30.782 7.115,31.34 1.15,0.365 5.901,5.55 9.078,9.91 5.413,7.426 14.099,25.587 11.594,24.24 -0.196,-0.105 -1.407,-0.733 -2.69,-1.395 -2.26,-1.164 -6.502,-6.001 -7.479,-8.525 -0.553,-1.429 -2.521,-1.68 -2.521,-0.323 0,2.362 2.146,21.059 2.688,23.42 1.167,5.084 0.834,9.667 -0.703,9.667 -1.659,0 -2.131,-1.152 -3.964,-9.667 -2.3,-10.684 -3.495,-14.953 -4.394,-15.7 -1.594,-1.322 -1.685,0.59 -0.521,10.844 1.337,11.776 1.43,14.92 0.473,15.877 -1.457,1.457 -2.7,-0.155 -3.762,-4.881 -1.03,-4.582 -1.348,-6.795 -2.17,-15.14 -0.437,-4.44 -0.874,-6 -1.68,-6 -1.234,0 -1.465,3.658 -0.583,9.253 1.376,8.737 1.266,16.986 -0.23,17.282 -1.581,0.314 -3.108,-3.408 -3.439,-8.383 -0.265,-3.99 -1.53,-14 -2.116,-16.748 -0.795,-3.734 -1.572,0.216 -1.746,8.888 -0.187,9.3 -0.834,11.525 -2.465,8.477 -1.761,-3.29 -2.838,-29.643 -2.046,-50.102 0.168,-4.352 -0.039,-6.131 -0.891,-7.667 -0.61,-1.1 -1.112,-2.479 -1.114,-3.064 -0.006,-1.682 -6.184,-18.204 -7.329,-19.601 -0.7,-0.853 -7.714,-17.456 -8.31,-19.668 -0.247,-0.917 -0.698,-2.267 -1.003,-3 -3.227,-7.763 -4.563,-13.755 -5.35,-24 -0.61,-7.925 -2.11,-16.546 -6.21,-35.667 -0.825,-3.85 -1.707,-7.329 -1.96,-7.73 -0.253,-0.401 -0.658,-1.97 -0.9,-3.486 -0.243,-1.516 -0.83,-3.287 -1.304,-3.936 -1.016,-1.39 -0.818,-2.084 -2.984,10.485 -0.79,4.584 -1.684,9.084 -1.987,10 -0.667,2.015 -1.599,7.204 -3.053,17 -1.75,11.785 0.223,41.874 3.627,55.334 7.745,30.625 8.727,68.277 3,115 -0.922,7.516 -2.126,15.616 -2.676,18 -1.787,7.745 -2.35,14.122 -1.823,20.666 0.28,3.484 0.578,11.284 0.66,17.334 0.082,6.05 0.474,12.65 0.87,14.666 2.054,10.47 1.433,36.376 -1.23,51.334 -0.359,2.016 -1.122,6.666 -1.696,10.333 -0.574,3.667 -1.78,10.567 -2.681,15.333 -5.092,26.943 -5.136,27.242 -4.708,32 0.231,2.567 0.635,8.117 0.898,12.334 0.4,6.409 0.724,8.012 1.978,9.77 0.825,1.156 1.5,2.29 1.5,2.519 0,0.229 1.125,1.854 2.5,3.61 a 417,417 0 0 1 4.167,5.416 c 0.917,1.222 2.635,3.3 3.818,4.62 1.183,1.319 2.158,2.736 2.166,3.15 0.01,0.413 0.437,1.1 0.95,1.527 1.67,1.385 1.925,4.09 0.533,5.641 -0.698,0.777 -1.437,1.894 -1.643,2.482 -0.51,1.458 -5.544,3.997 -6.895,3.478 -0.664,-0.255 -1.337,0.014 -1.711,0.684 -0.838,1.496 -3.34,1.389 -5.4,-0.23 -2.058,-1.62 -3.151,-1.703 -3.151,-0.24 0,2.763 -4.335,3.713 -7.667,1.68 -4.147,-2.529 -8.333,-12.218 -8.333,-19.284 0,-1.468 -0.593,-3.001 -1.64,-4.247 -2.85,-3.387 -2.976,-7.406 -0.676,-21.576 2.389,-14.718 1.595,-32.17 -2.366,-52 -0.732,-3.667 -1.46,-7.867 -1.618,-9.334 -0.158,-1.467 -0.796,-5.366 -1.418,-8.666 -0.95,-5.037 -1.154,-11.14 -1.275,-38 -0.153,-34.207 -0.98,-46.505 -4.304,-64 -0.348,-1.834 -1.549,-10.384 -2.668,-19 -1.119,-8.617 -2.333,-17.767 -2.698,-20.334 -1.115,-7.83 -2.735,-30.331 -2.608,-36.208 0.132,-6.087 -0.3,-7.003 -3.148,-6.677 -1.915,0.219 -1.915,0.219 -2.352,12.57 -0.24,6.792 -0.786,15.342 -1.212,19 l -1.008,8.649 c -0.128,1.1 -0.57,5.15 -0.98,9 -0.41,3.85 -1.194,9.85 -1.74,13.333 -3.702,23.62 -6.096,42.348 -6.602,51.667 -0.753,13.85 -0.88,38.005 -0.232,44 0.809,7.475 -0.952,25.139 -4.076,40.903 -4.837,24.402 -5.564,42.396 -2.382,58.989 1.523,7.939 1.334,13.418 -0.576,16.716 -0.868,1.499 -2.214,5.842 -2.99,9.651 -2.537,12.433 -10.687,20.411 -14.548,14.24 z"
       inkscape:label="full-front"
       transform="translate(104.42,52.372)" />
  </g>
</svg>
